<mxfile host="app.diagrams.net" modified="2023-05-02T20:08:21.479Z" agent="Mozilla/5.0 (Windows NT 10.0; Win64; x64) AppleWebKit/537.36 (KHTML, like Gecko) Chrome/112.0.0.0 Safari/537.36" etag="6ld-Ji0R4HWje8wH4qJm" version="21.1.5" type="device" pages="2">
  <diagram id="R2lEEEUBdFMjLlhIrx00" name="diagrama conceptual">
    <mxGraphModel dx="1289" dy="741" grid="1" gridSize="10" guides="1" tooltips="1" connect="1" arrows="1" fold="1" page="1" pageScale="1" pageWidth="850" pageHeight="1100" math="0" shadow="0" extFonts="Permanent Marker^https://fonts.googleapis.com/css?family=Permanent+Marker">
      <root>
        <mxCell id="0" />
        <mxCell id="1" parent="0" />
        <mxCell id="YHcps3v1yfW_CganGsF0-1" value="Socio" style="whiteSpace=wrap;html=1;align=center;fillColor=#f8cecc;strokeColor=#b85450;" vertex="1" parent="1">
          <mxGeometry x="750" y="620" width="100" height="40" as="geometry" />
        </mxCell>
        <mxCell id="YHcps3v1yfW_CganGsF0-2" value="dni" style="ellipse;whiteSpace=wrap;html=1;align=center;fontStyle=4;" vertex="1" parent="1">
          <mxGeometry x="690" y="570" width="60" height="30" as="geometry" />
        </mxCell>
        <mxCell id="YHcps3v1yfW_CganGsF0-4" value="" style="endArrow=none;html=1;rounded=0;exitX=0.5;exitY=1;exitDx=0;exitDy=0;entryX=0.25;entryY=0;entryDx=0;entryDy=0;" edge="1" parent="1" source="YHcps3v1yfW_CganGsF0-2" target="YHcps3v1yfW_CganGsF0-1">
          <mxGeometry relative="1" as="geometry">
            <mxPoint x="610" y="630" as="sourcePoint" />
            <mxPoint x="770" y="630" as="targetPoint" />
          </mxGeometry>
        </mxCell>
        <mxCell id="YHcps3v1yfW_CganGsF0-6" value="" style="endArrow=none;html=1;rounded=0;exitX=0.5;exitY=1;exitDx=0;exitDy=0;entryX=0.25;entryY=0;entryDx=0;entryDy=0;" edge="1" parent="1" source="YHcps3v1yfW_CganGsF0-8" target="YHcps3v1yfW_CganGsF0-1">
          <mxGeometry relative="1" as="geometry">
            <mxPoint x="790" y="580" as="sourcePoint" />
            <mxPoint x="770" y="630" as="targetPoint" />
          </mxGeometry>
        </mxCell>
        <mxCell id="YHcps3v1yfW_CganGsF0-8" value="nombre" style="ellipse;whiteSpace=wrap;html=1;align=center;" vertex="1" parent="1">
          <mxGeometry x="750" y="550" width="60" height="30" as="geometry" />
        </mxCell>
        <mxCell id="YHcps3v1yfW_CganGsF0-10" value="apellido" style="ellipse;whiteSpace=wrap;html=1;align=center;" vertex="1" parent="1">
          <mxGeometry x="820" y="550" width="60" height="30" as="geometry" />
        </mxCell>
        <mxCell id="YHcps3v1yfW_CganGsF0-11" value="" style="endArrow=none;html=1;rounded=0;exitX=0.5;exitY=1;exitDx=0;exitDy=0;entryX=0.428;entryY=-0.028;entryDx=0;entryDy=0;entryPerimeter=0;" edge="1" parent="1" source="YHcps3v1yfW_CganGsF0-10" target="YHcps3v1yfW_CganGsF0-1">
          <mxGeometry relative="1" as="geometry">
            <mxPoint x="790" y="580" as="sourcePoint" />
            <mxPoint x="770" y="630" as="targetPoint" />
          </mxGeometry>
        </mxCell>
        <mxCell id="YHcps3v1yfW_CganGsF0-12" value="direccion" style="ellipse;whiteSpace=wrap;html=1;align=center;" vertex="1" parent="1">
          <mxGeometry x="890" y="560" width="60" height="30" as="geometry" />
        </mxCell>
        <mxCell id="YHcps3v1yfW_CganGsF0-13" value="telefono" style="ellipse;whiteSpace=wrap;html=1;align=center;" vertex="1" parent="1">
          <mxGeometry x="880" y="590" width="60" height="30" as="geometry" />
        </mxCell>
        <mxCell id="YHcps3v1yfW_CganGsF0-14" value="correo" style="ellipse;whiteSpace=wrap;html=1;align=center;" vertex="1" parent="1">
          <mxGeometry x="880" y="625" width="60" height="30" as="geometry" />
        </mxCell>
        <mxCell id="YHcps3v1yfW_CganGsF0-15" value="" style="endArrow=none;html=1;rounded=0;exitX=0;exitY=0.5;exitDx=0;exitDy=0;entryX=0.614;entryY=0.003;entryDx=0;entryDy=0;entryPerimeter=0;" edge="1" parent="1" source="YHcps3v1yfW_CganGsF0-12" target="YHcps3v1yfW_CganGsF0-1">
          <mxGeometry relative="1" as="geometry">
            <mxPoint x="790" y="580" as="sourcePoint" />
            <mxPoint x="770" y="630" as="targetPoint" />
          </mxGeometry>
        </mxCell>
        <mxCell id="YHcps3v1yfW_CganGsF0-16" value="" style="endArrow=none;html=1;rounded=0;exitX=0;exitY=0.5;exitDx=0;exitDy=0;entryX=0.75;entryY=0;entryDx=0;entryDy=0;" edge="1" parent="1" source="YHcps3v1yfW_CganGsF0-13" target="YHcps3v1yfW_CganGsF0-1">
          <mxGeometry relative="1" as="geometry">
            <mxPoint x="790" y="580" as="sourcePoint" />
            <mxPoint x="770" y="630" as="targetPoint" />
          </mxGeometry>
        </mxCell>
        <mxCell id="YHcps3v1yfW_CganGsF0-17" value="" style="endArrow=none;html=1;rounded=0;exitX=0;exitY=0.5;exitDx=0;exitDy=0;entryX=1;entryY=0.5;entryDx=0;entryDy=0;" edge="1" parent="1" source="YHcps3v1yfW_CganGsF0-14" target="YHcps3v1yfW_CganGsF0-1">
          <mxGeometry relative="1" as="geometry">
            <mxPoint x="790" y="580" as="sourcePoint" />
            <mxPoint x="770" y="630" as="targetPoint" />
          </mxGeometry>
        </mxCell>
        <mxCell id="YHcps3v1yfW_CganGsF0-18" value="Libro" style="whiteSpace=wrap;html=1;align=center;fillColor=#d5e8d4;strokeColor=#82b366;" vertex="1" parent="1">
          <mxGeometry x="170" y="460" width="100" height="40" as="geometry" />
        </mxCell>
        <mxCell id="YHcps3v1yfW_CganGsF0-19" value="Autor" style="whiteSpace=wrap;html=1;align=center;fillColor=#d5e8d4;strokeColor=#82b366;" vertex="1" parent="1">
          <mxGeometry x="530" y="460" width="100" height="40" as="geometry" />
        </mxCell>
        <mxCell id="YHcps3v1yfW_CganGsF0-20" value="" style="endArrow=none;html=1;rounded=0;exitX=1;exitY=1;exitDx=0;exitDy=0;entryX=0.25;entryY=0;entryDx=0;entryDy=0;" edge="1" parent="1" source="YHcps3v1yfW_CganGsF0-21" target="YHcps3v1yfW_CganGsF0-18">
          <mxGeometry relative="1" as="geometry">
            <mxPoint x="210" y="250" as="sourcePoint" />
            <mxPoint x="190" y="300" as="targetPoint" />
          </mxGeometry>
        </mxCell>
        <mxCell id="YHcps3v1yfW_CganGsF0-21" value="titulo" style="ellipse;whiteSpace=wrap;html=1;align=center;" vertex="1" parent="1">
          <mxGeometry x="120" y="360" width="60" height="30" as="geometry" />
        </mxCell>
        <mxCell id="YHcps3v1yfW_CganGsF0-22" value="genero" style="ellipse;whiteSpace=wrap;html=1;align=center;" vertex="1" parent="1">
          <mxGeometry x="70" y="380" width="60" height="30" as="geometry" />
        </mxCell>
        <mxCell id="YHcps3v1yfW_CganGsF0-23" value="" style="endArrow=none;html=1;rounded=0;exitX=1;exitY=1;exitDx=0;exitDy=0;entryX=0.25;entryY=0;entryDx=0;entryDy=0;" edge="1" parent="1" source="YHcps3v1yfW_CganGsF0-22" target="YHcps3v1yfW_CganGsF0-18">
          <mxGeometry relative="1" as="geometry">
            <mxPoint x="210" y="250" as="sourcePoint" />
            <mxPoint x="190" y="300" as="targetPoint" />
          </mxGeometry>
        </mxCell>
        <mxCell id="YHcps3v1yfW_CganGsF0-25" value="paginas" style="ellipse;whiteSpace=wrap;html=1;align=center;" vertex="1" parent="1">
          <mxGeometry x="50" y="410" width="60" height="30" as="geometry" />
        </mxCell>
        <mxCell id="YHcps3v1yfW_CganGsF0-26" value="" style="endArrow=none;html=1;rounded=0;exitX=1;exitY=0.5;exitDx=0;exitDy=0;entryX=0.25;entryY=0;entryDx=0;entryDy=0;" edge="1" parent="1" source="YHcps3v1yfW_CganGsF0-25" target="YHcps3v1yfW_CganGsF0-18">
          <mxGeometry relative="1" as="geometry">
            <mxPoint x="210" y="250" as="sourcePoint" />
            <mxPoint x="190" y="300" as="targetPoint" />
          </mxGeometry>
        </mxCell>
        <mxCell id="YHcps3v1yfW_CganGsF0-27" value="codigo" style="ellipse;whiteSpace=wrap;html=1;align=center;fontStyle=4;" vertex="1" parent="1">
          <mxGeometry x="180" y="360" width="60" height="30" as="geometry" />
        </mxCell>
        <mxCell id="YHcps3v1yfW_CganGsF0-28" value="" style="endArrow=none;html=1;rounded=0;exitX=0.5;exitY=1;exitDx=0;exitDy=0;entryX=0.25;entryY=0;entryDx=0;entryDy=0;" edge="1" parent="1" source="YHcps3v1yfW_CganGsF0-27" target="YHcps3v1yfW_CganGsF0-18">
          <mxGeometry relative="1" as="geometry">
            <mxPoint x="210" y="250" as="sourcePoint" />
            <mxPoint x="190" y="300" as="targetPoint" />
          </mxGeometry>
        </mxCell>
        <mxCell id="YHcps3v1yfW_CganGsF0-29" value="codigo" style="ellipse;whiteSpace=wrap;html=1;align=center;fontStyle=4;" vertex="1" parent="1">
          <mxGeometry x="610" y="400" width="60" height="30" as="geometry" />
        </mxCell>
        <mxCell id="YHcps3v1yfW_CganGsF0-30" value="" style="endArrow=none;html=1;rounded=0;exitX=0.5;exitY=1;exitDx=0;exitDy=0;entryX=1;entryY=0.25;entryDx=0;entryDy=0;" edge="1" parent="1" source="YHcps3v1yfW_CganGsF0-29" target="YHcps3v1yfW_CganGsF0-19">
          <mxGeometry relative="1" as="geometry">
            <mxPoint x="290" y="250" as="sourcePoint" />
            <mxPoint x="270" y="300" as="targetPoint" />
          </mxGeometry>
        </mxCell>
        <mxCell id="YHcps3v1yfW_CganGsF0-31" value="nombre" style="ellipse;whiteSpace=wrap;html=1;align=center;" vertex="1" parent="1">
          <mxGeometry x="660" y="420" width="60" height="30" as="geometry" />
        </mxCell>
        <mxCell id="YHcps3v1yfW_CganGsF0-32" value="" style="endArrow=none;html=1;rounded=0;exitX=0;exitY=1;exitDx=0;exitDy=0;entryX=1;entryY=0.25;entryDx=0;entryDy=0;" edge="1" parent="1" source="YHcps3v1yfW_CganGsF0-31" target="YHcps3v1yfW_CganGsF0-19">
          <mxGeometry relative="1" as="geometry">
            <mxPoint x="290" y="250" as="sourcePoint" />
            <mxPoint x="270" y="300" as="targetPoint" />
          </mxGeometry>
        </mxCell>
        <mxCell id="YHcps3v1yfW_CganGsF0-33" value="nacionalidad" style="ellipse;whiteSpace=wrap;html=1;align=center;" vertex="1" parent="1">
          <mxGeometry x="690" y="450" width="80" height="30" as="geometry" />
        </mxCell>
        <mxCell id="YHcps3v1yfW_CganGsF0-34" value="" style="endArrow=none;html=1;rounded=0;exitX=0;exitY=0.5;exitDx=0;exitDy=0;entryX=1;entryY=0.25;entryDx=0;entryDy=0;" edge="1" parent="1" source="YHcps3v1yfW_CganGsF0-33" target="YHcps3v1yfW_CganGsF0-19">
          <mxGeometry relative="1" as="geometry">
            <mxPoint x="290" y="250" as="sourcePoint" />
            <mxPoint x="270" y="300" as="targetPoint" />
          </mxGeometry>
        </mxCell>
        <mxCell id="YHcps3v1yfW_CganGsF0-35" value="fechaNacimiento" style="ellipse;whiteSpace=wrap;html=1;align=center;" vertex="1" parent="1">
          <mxGeometry x="680" y="490" width="100" height="30" as="geometry" />
        </mxCell>
        <mxCell id="YHcps3v1yfW_CganGsF0-38" value="" style="endArrow=none;html=1;rounded=0;exitX=0;exitY=0.5;exitDx=0;exitDy=0;entryX=1;entryY=0.25;entryDx=0;entryDy=0;" edge="1" parent="1" source="YHcps3v1yfW_CganGsF0-35" target="YHcps3v1yfW_CganGsF0-19">
          <mxGeometry relative="1" as="geometry">
            <mxPoint x="290" y="250" as="sourcePoint" />
            <mxPoint x="270" y="300" as="targetPoint" />
          </mxGeometry>
        </mxCell>
        <mxCell id="YHcps3v1yfW_CganGsF0-40" value="Edicion" style="whiteSpace=wrap;html=1;align=center;fillColor=#d5e8d4;strokeColor=#82b366;" vertex="1" parent="1">
          <mxGeometry x="170" y="620" width="100" height="40" as="geometry" />
        </mxCell>
        <mxCell id="YHcps3v1yfW_CganGsF0-42" value="codigoISBN" style="ellipse;whiteSpace=wrap;html=1;align=center;fontStyle=4;" vertex="1" parent="1">
          <mxGeometry x="80" y="600" width="70" height="30" as="geometry" />
        </mxCell>
        <mxCell id="YHcps3v1yfW_CganGsF0-43" value="" style="endArrow=none;html=1;rounded=0;exitX=1;exitY=0.5;exitDx=0;exitDy=0;entryX=0;entryY=0.25;entryDx=0;entryDy=0;" edge="1" parent="1" source="YHcps3v1yfW_CganGsF0-42" target="YHcps3v1yfW_CganGsF0-40">
          <mxGeometry relative="1" as="geometry">
            <mxPoint x="210" y="300" as="sourcePoint" />
            <mxPoint x="190" y="350" as="targetPoint" />
          </mxGeometry>
        </mxCell>
        <mxCell id="YHcps3v1yfW_CganGsF0-44" value="" style="endArrow=none;html=1;rounded=0;entryX=0;entryY=0.5;entryDx=0;entryDy=0;exitX=1;exitY=0.5;exitDx=0;exitDy=0;" edge="1" parent="1" source="YHcps3v1yfW_CganGsF0-18" target="YHcps3v1yfW_CganGsF0-19">
          <mxGeometry relative="1" as="geometry">
            <mxPoint x="280" y="510" as="sourcePoint" />
            <mxPoint x="440" y="510" as="targetPoint" />
          </mxGeometry>
        </mxCell>
        <mxCell id="YHcps3v1yfW_CganGsF0-45" value="1,n" style="resizable=0;html=1;whiteSpace=wrap;align=left;verticalAlign=bottom;" connectable="0" vertex="1" parent="YHcps3v1yfW_CganGsF0-44">
          <mxGeometry x="-1" relative="1" as="geometry" />
        </mxCell>
        <mxCell id="YHcps3v1yfW_CganGsF0-46" value="1,n" style="resizable=0;html=1;whiteSpace=wrap;align=right;verticalAlign=bottom;" connectable="0" vertex="1" parent="YHcps3v1yfW_CganGsF0-44">
          <mxGeometry x="1" relative="1" as="geometry" />
        </mxCell>
        <mxCell id="YHcps3v1yfW_CganGsF0-47" value="" style="endArrow=none;html=1;rounded=0;entryX=0.5;entryY=0;entryDx=0;entryDy=0;exitX=0.5;exitY=1;exitDx=0;exitDy=0;" edge="1" parent="1" source="YHcps3v1yfW_CganGsF0-18" target="YHcps3v1yfW_CganGsF0-40">
          <mxGeometry relative="1" as="geometry">
            <mxPoint x="280" y="510" as="sourcePoint" />
            <mxPoint x="440" y="510" as="targetPoint" />
          </mxGeometry>
        </mxCell>
        <mxCell id="YHcps3v1yfW_CganGsF0-48" value="1,1" style="resizable=0;html=1;whiteSpace=wrap;align=left;verticalAlign=bottom;" connectable="0" vertex="1" parent="YHcps3v1yfW_CganGsF0-47">
          <mxGeometry x="-1" relative="1" as="geometry">
            <mxPoint y="20" as="offset" />
          </mxGeometry>
        </mxCell>
        <mxCell id="YHcps3v1yfW_CganGsF0-49" value="1,n" style="resizable=0;html=1;whiteSpace=wrap;align=right;verticalAlign=bottom;" connectable="0" vertex="1" parent="YHcps3v1yfW_CganGsF0-47">
          <mxGeometry x="1" relative="1" as="geometry">
            <mxPoint x="24" y="-2" as="offset" />
          </mxGeometry>
        </mxCell>
        <mxCell id="YHcps3v1yfW_CganGsF0-58" value="Ejemplar" style="whiteSpace=wrap;html=1;align=center;fillColor=#d5e8d4;strokeColor=#82b366;" vertex="1" parent="1">
          <mxGeometry x="470" y="620" width="100" height="40" as="geometry" />
        </mxCell>
        <mxCell id="YHcps3v1yfW_CganGsF0-59" value="" style="endArrow=none;html=1;rounded=0;entryX=0;entryY=0.5;entryDx=0;entryDy=0;exitX=1;exitY=0.5;exitDx=0;exitDy=0;" edge="1" parent="1" source="YHcps3v1yfW_CganGsF0-40" target="YHcps3v1yfW_CganGsF0-58">
          <mxGeometry relative="1" as="geometry">
            <mxPoint x="280" y="560" as="sourcePoint" />
            <mxPoint x="440" y="560" as="targetPoint" />
          </mxGeometry>
        </mxCell>
        <mxCell id="YHcps3v1yfW_CganGsF0-60" value="1,1" style="resizable=0;html=1;whiteSpace=wrap;align=left;verticalAlign=bottom;" connectable="0" vertex="1" parent="YHcps3v1yfW_CganGsF0-59">
          <mxGeometry x="-1" relative="1" as="geometry">
            <mxPoint x="1" y="1" as="offset" />
          </mxGeometry>
        </mxCell>
        <mxCell id="YHcps3v1yfW_CganGsF0-61" value="1,n" style="resizable=0;html=1;whiteSpace=wrap;align=right;verticalAlign=bottom;" connectable="0" vertex="1" parent="YHcps3v1yfW_CganGsF0-59">
          <mxGeometry x="1" relative="1" as="geometry">
            <mxPoint x="-1" y="1" as="offset" />
          </mxGeometry>
        </mxCell>
        <mxCell id="YHcps3v1yfW_CganGsF0-62" value="Escribe" style="shape=rhombus;perimeter=rhombusPerimeter;whiteSpace=wrap;html=1;align=center;" vertex="1" parent="1">
          <mxGeometry x="345" y="460" width="110" height="40" as="geometry" />
        </mxCell>
        <mxCell id="YHcps3v1yfW_CganGsF0-63" value="Tiene" style="shape=rhombus;perimeter=rhombusPerimeter;whiteSpace=wrap;html=1;align=center;" vertex="1" parent="1">
          <mxGeometry x="165" y="540" width="110" height="40" as="geometry" />
        </mxCell>
        <mxCell id="YHcps3v1yfW_CganGsF0-68" value="Tiene" style="shape=rhombus;perimeter=rhombusPerimeter;whiteSpace=wrap;html=1;align=center;" vertex="1" parent="1">
          <mxGeometry x="320" y="620" width="110" height="40" as="geometry" />
        </mxCell>
        <mxCell id="YHcps3v1yfW_CganGsF0-69" value="numeroEjemplar" style="ellipse;whiteSpace=wrap;html=1;align=center;fontStyle=4;" vertex="1" parent="1">
          <mxGeometry x="410" y="560" width="110" height="30" as="geometry" />
        </mxCell>
        <mxCell id="YHcps3v1yfW_CganGsF0-70" value="estaDisponible" style="ellipse;whiteSpace=wrap;html=1;align=center;" vertex="1" parent="1">
          <mxGeometry x="530" y="560" width="90" height="30" as="geometry" />
        </mxCell>
        <mxCell id="YHcps3v1yfW_CganGsF0-72" value="" style="endArrow=none;html=1;rounded=0;exitX=0.5;exitY=1;exitDx=0;exitDy=0;entryX=0.5;entryY=0;entryDx=0;entryDy=0;" edge="1" parent="1" source="YHcps3v1yfW_CganGsF0-69" target="YHcps3v1yfW_CganGsF0-58">
          <mxGeometry relative="1" as="geometry">
            <mxPoint x="210" y="250" as="sourcePoint" />
            <mxPoint x="190" y="300" as="targetPoint" />
          </mxGeometry>
        </mxCell>
        <mxCell id="YHcps3v1yfW_CganGsF0-73" value="" style="endArrow=none;html=1;rounded=0;exitX=0;exitY=1;exitDx=0;exitDy=0;entryX=0.5;entryY=0;entryDx=0;entryDy=0;" edge="1" parent="1" source="YHcps3v1yfW_CganGsF0-70" target="YHcps3v1yfW_CganGsF0-58">
          <mxGeometry relative="1" as="geometry">
            <mxPoint x="210" y="250" as="sourcePoint" />
            <mxPoint x="190" y="300" as="targetPoint" />
          </mxGeometry>
        </mxCell>
        <mxCell id="YHcps3v1yfW_CganGsF0-75" value="" style="endArrow=none;html=1;rounded=0;entryX=0;entryY=0.5;entryDx=0;entryDy=0;exitX=1;exitY=0.5;exitDx=0;exitDy=0;" edge="1" parent="1" source="YHcps3v1yfW_CganGsF0-74" target="YHcps3v1yfW_CganGsF0-1">
          <mxGeometry relative="1" as="geometry">
            <mxPoint x="530" y="639.66" as="sourcePoint" />
            <mxPoint x="730" y="639.66" as="targetPoint" />
          </mxGeometry>
        </mxCell>
        <mxCell id="YHcps3v1yfW_CganGsF0-77" value="1,n" style="resizable=0;html=1;whiteSpace=wrap;align=right;verticalAlign=bottom;" connectable="0" vertex="1" parent="YHcps3v1yfW_CganGsF0-75">
          <mxGeometry x="1" relative="1" as="geometry">
            <mxPoint x="-1" y="1" as="offset" />
          </mxGeometry>
        </mxCell>
        <mxCell id="YHcps3v1yfW_CganGsF0-78" value="" style="endArrow=none;html=1;rounded=0;entryX=0;entryY=0.5;entryDx=0;entryDy=0;exitX=1;exitY=0.5;exitDx=0;exitDy=0;" edge="1" parent="1" source="YHcps3v1yfW_CganGsF0-58" target="YHcps3v1yfW_CganGsF0-74">
          <mxGeometry relative="1" as="geometry">
            <mxPoint x="570" y="640" as="sourcePoint" />
            <mxPoint x="750" y="640" as="targetPoint" />
          </mxGeometry>
        </mxCell>
        <mxCell id="YHcps3v1yfW_CganGsF0-79" value="1,n" style="resizable=0;html=1;whiteSpace=wrap;align=left;verticalAlign=bottom;" connectable="0" vertex="1" parent="YHcps3v1yfW_CganGsF0-78">
          <mxGeometry x="-1" relative="1" as="geometry">
            <mxPoint x="1" y="1" as="offset" />
          </mxGeometry>
        </mxCell>
        <mxCell id="YHcps3v1yfW_CganGsF0-74" value="Presta" style="shape=rhombus;perimeter=rhombusPerimeter;whiteSpace=wrap;html=1;align=center;" vertex="1" parent="1">
          <mxGeometry x="600" y="620" width="110" height="40" as="geometry" />
        </mxCell>
        <mxCell id="YHcps3v1yfW_CganGsF0-81" value="fechaPrestamo" style="ellipse;whiteSpace=wrap;html=1;align=center;" vertex="1" parent="1">
          <mxGeometry x="540" y="690" width="90" height="30" as="geometry" />
        </mxCell>
        <mxCell id="YHcps3v1yfW_CganGsF0-82" value="" style="endArrow=none;html=1;rounded=0;exitX=0;exitY=1;exitDx=0;exitDy=0;entryX=0.5;entryY=0;entryDx=0;entryDy=0;" edge="1" parent="1" source="YHcps3v1yfW_CganGsF0-74" target="YHcps3v1yfW_CganGsF0-81">
          <mxGeometry relative="1" as="geometry">
            <mxPoint x="210" y="250" as="sourcePoint" />
            <mxPoint x="190" y="300" as="targetPoint" />
          </mxGeometry>
        </mxCell>
        <mxCell id="YHcps3v1yfW_CganGsF0-83" value="fechaDevolucion" style="ellipse;whiteSpace=wrap;html=1;align=center;" vertex="1" parent="1">
          <mxGeometry x="660" y="690" width="95" height="30" as="geometry" />
        </mxCell>
        <mxCell id="YHcps3v1yfW_CganGsF0-84" value="" style="endArrow=none;html=1;rounded=0;exitX=1;exitY=1;exitDx=0;exitDy=0;entryX=0.5;entryY=0;entryDx=0;entryDy=0;" edge="1" parent="1" source="YHcps3v1yfW_CganGsF0-74" target="YHcps3v1yfW_CganGsF0-83">
          <mxGeometry relative="1" as="geometry">
            <mxPoint x="210" y="250" as="sourcePoint" />
            <mxPoint x="190" y="300" as="targetPoint" />
          </mxGeometry>
        </mxCell>
      </root>
    </mxGraphModel>
  </diagram>
  <diagram id="5C810Ukz3juJQArfI_yk" name="diagrama logico">
    <mxGraphModel dx="1096" dy="630" grid="1" gridSize="10" guides="1" tooltips="1" connect="1" arrows="1" fold="1" page="1" pageScale="1" pageWidth="850" pageHeight="1100" math="0" shadow="0">
      <root>
        <mxCell id="0" />
        <mxCell id="1" parent="0" />
        <mxCell id="7SmmPqtkqfkZnW7PVA8j-1" value="" style="edgeStyle=entityRelationEdgeStyle;endArrow=ERzeroToMany;startArrow=ERone;endFill=1;startFill=0;" edge="1" parent="1" source="7SmmPqtkqfkZnW7PVA8j-24" target="7SmmPqtkqfkZnW7PVA8j-7">
          <mxGeometry width="100" height="100" relative="1" as="geometry">
            <mxPoint x="340" y="720" as="sourcePoint" />
            <mxPoint x="440" y="620" as="targetPoint" />
          </mxGeometry>
        </mxCell>
        <mxCell id="7SmmPqtkqfkZnW7PVA8j-2" value="" style="edgeStyle=entityRelationEdgeStyle;endArrow=ERzeroToMany;startArrow=ERone;endFill=1;startFill=0;" edge="1" parent="1" source="7SmmPqtkqfkZnW7PVA8j-4" target="7SmmPqtkqfkZnW7PVA8j-17">
          <mxGeometry width="100" height="100" relative="1" as="geometry">
            <mxPoint x="400" y="180" as="sourcePoint" />
            <mxPoint x="460" y="205" as="targetPoint" />
          </mxGeometry>
        </mxCell>
        <mxCell id="7SmmPqtkqfkZnW7PVA8j-3" value="Orders" style="shape=table;startSize=30;container=1;collapsible=1;childLayout=tableLayout;fixedRows=1;rowLines=0;fontStyle=1;align=center;resizeLast=1;" vertex="1" parent="1">
          <mxGeometry x="450" y="120" width="250" height="130" as="geometry" />
        </mxCell>
        <mxCell id="7SmmPqtkqfkZnW7PVA8j-4" value="" style="shape=partialRectangle;collapsible=0;dropTarget=0;pointerEvents=0;fillColor=none;points=[[0,0.5],[1,0.5]];portConstraint=eastwest;top=0;left=0;right=0;bottom=1;" vertex="1" parent="7SmmPqtkqfkZnW7PVA8j-3">
          <mxGeometry y="30" width="250" height="30" as="geometry" />
        </mxCell>
        <mxCell id="7SmmPqtkqfkZnW7PVA8j-5" value="PK" style="shape=partialRectangle;overflow=hidden;connectable=0;fillColor=none;top=0;left=0;bottom=0;right=0;fontStyle=1;" vertex="1" parent="7SmmPqtkqfkZnW7PVA8j-4">
          <mxGeometry width="30" height="30" as="geometry">
            <mxRectangle width="30" height="30" as="alternateBounds" />
          </mxGeometry>
        </mxCell>
        <mxCell id="7SmmPqtkqfkZnW7PVA8j-6" value="order_id int NOT NULL " style="shape=partialRectangle;overflow=hidden;connectable=0;fillColor=none;top=0;left=0;bottom=0;right=0;align=left;spacingLeft=6;fontStyle=5;" vertex="1" parent="7SmmPqtkqfkZnW7PVA8j-4">
          <mxGeometry x="30" width="220" height="30" as="geometry">
            <mxRectangle width="220" height="30" as="alternateBounds" />
          </mxGeometry>
        </mxCell>
        <mxCell id="7SmmPqtkqfkZnW7PVA8j-7" value="" style="shape=partialRectangle;collapsible=0;dropTarget=0;pointerEvents=0;fillColor=none;points=[[0,0.5],[1,0.5]];portConstraint=eastwest;top=0;left=0;right=0;bottom=0;" vertex="1" parent="7SmmPqtkqfkZnW7PVA8j-3">
          <mxGeometry y="60" width="250" height="30" as="geometry" />
        </mxCell>
        <mxCell id="7SmmPqtkqfkZnW7PVA8j-8" value="FK1" style="shape=partialRectangle;overflow=hidden;connectable=0;fillColor=none;top=0;left=0;bottom=0;right=0;" vertex="1" parent="7SmmPqtkqfkZnW7PVA8j-7">
          <mxGeometry width="30" height="30" as="geometry">
            <mxRectangle width="30" height="30" as="alternateBounds" />
          </mxGeometry>
        </mxCell>
        <mxCell id="7SmmPqtkqfkZnW7PVA8j-9" value="customer_id int NOT NULL" style="shape=partialRectangle;overflow=hidden;connectable=0;fillColor=none;top=0;left=0;bottom=0;right=0;align=left;spacingLeft=6;" vertex="1" parent="7SmmPqtkqfkZnW7PVA8j-7">
          <mxGeometry x="30" width="220" height="30" as="geometry">
            <mxRectangle width="220" height="30" as="alternateBounds" />
          </mxGeometry>
        </mxCell>
        <mxCell id="7SmmPqtkqfkZnW7PVA8j-10" value="" style="shape=partialRectangle;collapsible=0;dropTarget=0;pointerEvents=0;fillColor=none;points=[[0,0.5],[1,0.5]];portConstraint=eastwest;top=0;left=0;right=0;bottom=0;" vertex="1" parent="7SmmPqtkqfkZnW7PVA8j-3">
          <mxGeometry y="90" width="250" height="30" as="geometry" />
        </mxCell>
        <mxCell id="7SmmPqtkqfkZnW7PVA8j-11" value="" style="shape=partialRectangle;overflow=hidden;connectable=0;fillColor=none;top=0;left=0;bottom=0;right=0;" vertex="1" parent="7SmmPqtkqfkZnW7PVA8j-10">
          <mxGeometry width="30" height="30" as="geometry">
            <mxRectangle width="30" height="30" as="alternateBounds" />
          </mxGeometry>
        </mxCell>
        <mxCell id="7SmmPqtkqfkZnW7PVA8j-12" value="order_date date NOT NULL" style="shape=partialRectangle;overflow=hidden;connectable=0;fillColor=none;top=0;left=0;bottom=0;right=0;align=left;spacingLeft=6;" vertex="1" parent="7SmmPqtkqfkZnW7PVA8j-10">
          <mxGeometry x="30" width="220" height="30" as="geometry">
            <mxRectangle width="220" height="30" as="alternateBounds" />
          </mxGeometry>
        </mxCell>
        <mxCell id="7SmmPqtkqfkZnW7PVA8j-13" value="Shipments" style="shape=table;startSize=30;container=1;collapsible=1;childLayout=tableLayout;fixedRows=1;rowLines=0;fontStyle=1;align=center;resizeLast=1;" vertex="1" parent="1">
          <mxGeometry x="450" y="280" width="250" height="130" as="geometry" />
        </mxCell>
        <mxCell id="7SmmPqtkqfkZnW7PVA8j-14" value="" style="shape=partialRectangle;collapsible=0;dropTarget=0;pointerEvents=0;fillColor=none;points=[[0,0.5],[1,0.5]];portConstraint=eastwest;top=0;left=0;right=0;bottom=1;" vertex="1" parent="7SmmPqtkqfkZnW7PVA8j-13">
          <mxGeometry y="30" width="250" height="30" as="geometry" />
        </mxCell>
        <mxCell id="7SmmPqtkqfkZnW7PVA8j-15" value="PK" style="shape=partialRectangle;overflow=hidden;connectable=0;fillColor=none;top=0;left=0;bottom=0;right=0;fontStyle=1;" vertex="1" parent="7SmmPqtkqfkZnW7PVA8j-14">
          <mxGeometry width="30" height="30" as="geometry">
            <mxRectangle width="30" height="30" as="alternateBounds" />
          </mxGeometry>
        </mxCell>
        <mxCell id="7SmmPqtkqfkZnW7PVA8j-16" value="shipment_id int NOT NULL " style="shape=partialRectangle;overflow=hidden;connectable=0;fillColor=none;top=0;left=0;bottom=0;right=0;align=left;spacingLeft=6;fontStyle=5;" vertex="1" parent="7SmmPqtkqfkZnW7PVA8j-14">
          <mxGeometry x="30" width="220" height="30" as="geometry">
            <mxRectangle width="220" height="30" as="alternateBounds" />
          </mxGeometry>
        </mxCell>
        <mxCell id="7SmmPqtkqfkZnW7PVA8j-17" value="" style="shape=partialRectangle;collapsible=0;dropTarget=0;pointerEvents=0;fillColor=none;points=[[0,0.5],[1,0.5]];portConstraint=eastwest;top=0;left=0;right=0;bottom=0;" vertex="1" parent="7SmmPqtkqfkZnW7PVA8j-13">
          <mxGeometry y="60" width="250" height="30" as="geometry" />
        </mxCell>
        <mxCell id="7SmmPqtkqfkZnW7PVA8j-18" value="FK1" style="shape=partialRectangle;overflow=hidden;connectable=0;fillColor=none;top=0;left=0;bottom=0;right=0;" vertex="1" parent="7SmmPqtkqfkZnW7PVA8j-17">
          <mxGeometry width="30" height="30" as="geometry">
            <mxRectangle width="30" height="30" as="alternateBounds" />
          </mxGeometry>
        </mxCell>
        <mxCell id="7SmmPqtkqfkZnW7PVA8j-19" value="order_id int NOT NULL" style="shape=partialRectangle;overflow=hidden;connectable=0;fillColor=none;top=0;left=0;bottom=0;right=0;align=left;spacingLeft=6;" vertex="1" parent="7SmmPqtkqfkZnW7PVA8j-17">
          <mxGeometry x="30" width="220" height="30" as="geometry">
            <mxRectangle width="220" height="30" as="alternateBounds" />
          </mxGeometry>
        </mxCell>
        <mxCell id="7SmmPqtkqfkZnW7PVA8j-20" value="" style="shape=partialRectangle;collapsible=0;dropTarget=0;pointerEvents=0;fillColor=none;points=[[0,0.5],[1,0.5]];portConstraint=eastwest;top=0;left=0;right=0;bottom=0;" vertex="1" parent="7SmmPqtkqfkZnW7PVA8j-13">
          <mxGeometry y="90" width="250" height="30" as="geometry" />
        </mxCell>
        <mxCell id="7SmmPqtkqfkZnW7PVA8j-21" value="" style="shape=partialRectangle;overflow=hidden;connectable=0;fillColor=none;top=0;left=0;bottom=0;right=0;" vertex="1" parent="7SmmPqtkqfkZnW7PVA8j-20">
          <mxGeometry width="30" height="30" as="geometry">
            <mxRectangle width="30" height="30" as="alternateBounds" />
          </mxGeometry>
        </mxCell>
        <mxCell id="7SmmPqtkqfkZnW7PVA8j-22" value="shipment_date date NOT NULL" style="shape=partialRectangle;overflow=hidden;connectable=0;fillColor=none;top=0;left=0;bottom=0;right=0;align=left;spacingLeft=6;" vertex="1" parent="7SmmPqtkqfkZnW7PVA8j-20">
          <mxGeometry x="30" width="220" height="30" as="geometry">
            <mxRectangle width="220" height="30" as="alternateBounds" />
          </mxGeometry>
        </mxCell>
        <mxCell id="7SmmPqtkqfkZnW7PVA8j-23" value="Libro" style="shape=table;startSize=30;container=1;collapsible=1;childLayout=tableLayout;fixedRows=1;rowLines=0;fontStyle=1;align=center;resizeLast=1;" vertex="1" parent="1">
          <mxGeometry x="120" y="120" width="250" height="100" as="geometry" />
        </mxCell>
        <mxCell id="7SmmPqtkqfkZnW7PVA8j-24" value="" style="shape=partialRectangle;collapsible=0;dropTarget=0;pointerEvents=0;fillColor=none;points=[[0,0.5],[1,0.5]];portConstraint=eastwest;top=0;left=0;right=0;bottom=1;" vertex="1" parent="7SmmPqtkqfkZnW7PVA8j-23">
          <mxGeometry y="30" width="250" height="30" as="geometry" />
        </mxCell>
        <mxCell id="7SmmPqtkqfkZnW7PVA8j-25" value="PK" style="shape=partialRectangle;overflow=hidden;connectable=0;fillColor=none;top=0;left=0;bottom=0;right=0;fontStyle=1;" vertex="1" parent="7SmmPqtkqfkZnW7PVA8j-24">
          <mxGeometry width="30" height="30" as="geometry">
            <mxRectangle width="30" height="30" as="alternateBounds" />
          </mxGeometry>
        </mxCell>
        <mxCell id="7SmmPqtkqfkZnW7PVA8j-26" value="dni NOT NULL " style="shape=partialRectangle;overflow=hidden;connectable=0;fillColor=none;top=0;left=0;bottom=0;right=0;align=left;spacingLeft=6;fontStyle=5;" vertex="1" parent="7SmmPqtkqfkZnW7PVA8j-24">
          <mxGeometry x="30" width="220" height="30" as="geometry">
            <mxRectangle width="220" height="30" as="alternateBounds" />
          </mxGeometry>
        </mxCell>
        <mxCell id="7SmmPqtkqfkZnW7PVA8j-27" value="" style="shape=partialRectangle;collapsible=0;dropTarget=0;pointerEvents=0;fillColor=none;points=[[0,0.5],[1,0.5]];portConstraint=eastwest;top=0;left=0;right=0;bottom=0;" vertex="1" parent="7SmmPqtkqfkZnW7PVA8j-23">
          <mxGeometry y="60" width="250" height="30" as="geometry" />
        </mxCell>
        <mxCell id="7SmmPqtkqfkZnW7PVA8j-28" value="" style="shape=partialRectangle;overflow=hidden;connectable=0;fillColor=none;top=0;left=0;bottom=0;right=0;" vertex="1" parent="7SmmPqtkqfkZnW7PVA8j-27">
          <mxGeometry width="30" height="30" as="geometry">
            <mxRectangle width="30" height="30" as="alternateBounds" />
          </mxGeometry>
        </mxCell>
        <mxCell id="7SmmPqtkqfkZnW7PVA8j-29" value="customer_name char(50) NOT NULL" style="shape=partialRectangle;overflow=hidden;connectable=0;fillColor=none;top=0;left=0;bottom=0;right=0;align=left;spacingLeft=6;" vertex="1" parent="7SmmPqtkqfkZnW7PVA8j-27">
          <mxGeometry x="30" width="220" height="30" as="geometry">
            <mxRectangle width="220" height="30" as="alternateBounds" />
          </mxGeometry>
        </mxCell>
        <mxCell id="MIFL1ekXniG99IZFZCdi-1" value="Socio" style="whiteSpace=wrap;html=1;align=center;fillColor=#f8cecc;strokeColor=#b85450;" vertex="1" parent="1">
          <mxGeometry x="740" y="770" width="100" height="40" as="geometry" />
        </mxCell>
        <mxCell id="MIFL1ekXniG99IZFZCdi-2" value="dni" style="ellipse;whiteSpace=wrap;html=1;align=center;fontStyle=4;" vertex="1" parent="1">
          <mxGeometry x="680" y="720" width="60" height="30" as="geometry" />
        </mxCell>
        <mxCell id="MIFL1ekXniG99IZFZCdi-3" value="" style="endArrow=none;html=1;rounded=0;exitX=0.5;exitY=1;exitDx=0;exitDy=0;entryX=0.25;entryY=0;entryDx=0;entryDy=0;" edge="1" parent="1" source="MIFL1ekXniG99IZFZCdi-2" target="MIFL1ekXniG99IZFZCdi-1">
          <mxGeometry relative="1" as="geometry">
            <mxPoint x="600" y="780" as="sourcePoint" />
            <mxPoint x="760" y="780" as="targetPoint" />
          </mxGeometry>
        </mxCell>
        <mxCell id="MIFL1ekXniG99IZFZCdi-4" value="" style="endArrow=none;html=1;rounded=0;exitX=0.5;exitY=1;exitDx=0;exitDy=0;entryX=0.25;entryY=0;entryDx=0;entryDy=0;" edge="1" parent="1" source="MIFL1ekXniG99IZFZCdi-5" target="MIFL1ekXniG99IZFZCdi-1">
          <mxGeometry relative="1" as="geometry">
            <mxPoint x="780" y="730" as="sourcePoint" />
            <mxPoint x="760" y="780" as="targetPoint" />
          </mxGeometry>
        </mxCell>
        <mxCell id="MIFL1ekXniG99IZFZCdi-5" value="nombre" style="ellipse;whiteSpace=wrap;html=1;align=center;" vertex="1" parent="1">
          <mxGeometry x="740" y="700" width="60" height="30" as="geometry" />
        </mxCell>
        <mxCell id="MIFL1ekXniG99IZFZCdi-6" value="apellido" style="ellipse;whiteSpace=wrap;html=1;align=center;" vertex="1" parent="1">
          <mxGeometry x="810" y="700" width="60" height="30" as="geometry" />
        </mxCell>
        <mxCell id="MIFL1ekXniG99IZFZCdi-7" value="" style="endArrow=none;html=1;rounded=0;exitX=0.5;exitY=1;exitDx=0;exitDy=0;entryX=0.428;entryY=-0.028;entryDx=0;entryDy=0;entryPerimeter=0;" edge="1" parent="1" source="MIFL1ekXniG99IZFZCdi-6" target="MIFL1ekXniG99IZFZCdi-1">
          <mxGeometry relative="1" as="geometry">
            <mxPoint x="780" y="730" as="sourcePoint" />
            <mxPoint x="760" y="780" as="targetPoint" />
          </mxGeometry>
        </mxCell>
        <mxCell id="MIFL1ekXniG99IZFZCdi-8" value="direccion" style="ellipse;whiteSpace=wrap;html=1;align=center;" vertex="1" parent="1">
          <mxGeometry x="880" y="710" width="60" height="30" as="geometry" />
        </mxCell>
        <mxCell id="MIFL1ekXniG99IZFZCdi-9" value="telefono" style="ellipse;whiteSpace=wrap;html=1;align=center;" vertex="1" parent="1">
          <mxGeometry x="870" y="740" width="60" height="30" as="geometry" />
        </mxCell>
        <mxCell id="MIFL1ekXniG99IZFZCdi-10" value="correo" style="ellipse;whiteSpace=wrap;html=1;align=center;" vertex="1" parent="1">
          <mxGeometry x="870" y="775" width="60" height="30" as="geometry" />
        </mxCell>
        <mxCell id="MIFL1ekXniG99IZFZCdi-11" value="" style="endArrow=none;html=1;rounded=0;exitX=0;exitY=0.5;exitDx=0;exitDy=0;entryX=0.614;entryY=0.003;entryDx=0;entryDy=0;entryPerimeter=0;" edge="1" parent="1" source="MIFL1ekXniG99IZFZCdi-8" target="MIFL1ekXniG99IZFZCdi-1">
          <mxGeometry relative="1" as="geometry">
            <mxPoint x="780" y="730" as="sourcePoint" />
            <mxPoint x="760" y="780" as="targetPoint" />
          </mxGeometry>
        </mxCell>
        <mxCell id="MIFL1ekXniG99IZFZCdi-12" value="" style="endArrow=none;html=1;rounded=0;exitX=0;exitY=0.5;exitDx=0;exitDy=0;entryX=0.75;entryY=0;entryDx=0;entryDy=0;" edge="1" parent="1" source="MIFL1ekXniG99IZFZCdi-9" target="MIFL1ekXniG99IZFZCdi-1">
          <mxGeometry relative="1" as="geometry">
            <mxPoint x="780" y="730" as="sourcePoint" />
            <mxPoint x="760" y="780" as="targetPoint" />
          </mxGeometry>
        </mxCell>
        <mxCell id="MIFL1ekXniG99IZFZCdi-13" value="" style="endArrow=none;html=1;rounded=0;exitX=0;exitY=0.5;exitDx=0;exitDy=0;entryX=1;entryY=0.5;entryDx=0;entryDy=0;" edge="1" parent="1" source="MIFL1ekXniG99IZFZCdi-10" target="MIFL1ekXniG99IZFZCdi-1">
          <mxGeometry relative="1" as="geometry">
            <mxPoint x="780" y="730" as="sourcePoint" />
            <mxPoint x="760" y="780" as="targetPoint" />
          </mxGeometry>
        </mxCell>
        <mxCell id="MIFL1ekXniG99IZFZCdi-14" value="Libro" style="whiteSpace=wrap;html=1;align=center;fillColor=#d5e8d4;strokeColor=#82b366;" vertex="1" parent="1">
          <mxGeometry x="160" y="610" width="100" height="40" as="geometry" />
        </mxCell>
        <mxCell id="MIFL1ekXniG99IZFZCdi-15" value="Autor" style="whiteSpace=wrap;html=1;align=center;fillColor=#d5e8d4;strokeColor=#82b366;" vertex="1" parent="1">
          <mxGeometry x="520" y="610" width="100" height="40" as="geometry" />
        </mxCell>
        <mxCell id="MIFL1ekXniG99IZFZCdi-16" value="" style="endArrow=none;html=1;rounded=0;exitX=1;exitY=1;exitDx=0;exitDy=0;entryX=0.25;entryY=0;entryDx=0;entryDy=0;" edge="1" parent="1" source="MIFL1ekXniG99IZFZCdi-17" target="MIFL1ekXniG99IZFZCdi-14">
          <mxGeometry relative="1" as="geometry">
            <mxPoint x="200" y="400" as="sourcePoint" />
            <mxPoint x="180" y="450" as="targetPoint" />
          </mxGeometry>
        </mxCell>
        <mxCell id="MIFL1ekXniG99IZFZCdi-17" value="titulo" style="ellipse;whiteSpace=wrap;html=1;align=center;" vertex="1" parent="1">
          <mxGeometry x="110" y="510" width="60" height="30" as="geometry" />
        </mxCell>
        <mxCell id="MIFL1ekXniG99IZFZCdi-18" value="genero" style="ellipse;whiteSpace=wrap;html=1;align=center;" vertex="1" parent="1">
          <mxGeometry x="60" y="530" width="60" height="30" as="geometry" />
        </mxCell>
        <mxCell id="MIFL1ekXniG99IZFZCdi-19" value="" style="endArrow=none;html=1;rounded=0;exitX=1;exitY=1;exitDx=0;exitDy=0;entryX=0.25;entryY=0;entryDx=0;entryDy=0;" edge="1" parent="1" source="MIFL1ekXniG99IZFZCdi-18" target="MIFL1ekXniG99IZFZCdi-14">
          <mxGeometry relative="1" as="geometry">
            <mxPoint x="200" y="400" as="sourcePoint" />
            <mxPoint x="180" y="450" as="targetPoint" />
          </mxGeometry>
        </mxCell>
        <mxCell id="MIFL1ekXniG99IZFZCdi-20" value="paginas" style="ellipse;whiteSpace=wrap;html=1;align=center;" vertex="1" parent="1">
          <mxGeometry x="40" y="560" width="60" height="30" as="geometry" />
        </mxCell>
        <mxCell id="MIFL1ekXniG99IZFZCdi-21" value="" style="endArrow=none;html=1;rounded=0;exitX=1;exitY=0.5;exitDx=0;exitDy=0;entryX=0.25;entryY=0;entryDx=0;entryDy=0;" edge="1" parent="1" source="MIFL1ekXniG99IZFZCdi-20" target="MIFL1ekXniG99IZFZCdi-14">
          <mxGeometry relative="1" as="geometry">
            <mxPoint x="200" y="400" as="sourcePoint" />
            <mxPoint x="180" y="450" as="targetPoint" />
          </mxGeometry>
        </mxCell>
        <mxCell id="MIFL1ekXniG99IZFZCdi-22" value="codigo" style="ellipse;whiteSpace=wrap;html=1;align=center;fontStyle=4;" vertex="1" parent="1">
          <mxGeometry x="170" y="510" width="60" height="30" as="geometry" />
        </mxCell>
        <mxCell id="MIFL1ekXniG99IZFZCdi-23" value="" style="endArrow=none;html=1;rounded=0;exitX=0.5;exitY=1;exitDx=0;exitDy=0;entryX=0.25;entryY=0;entryDx=0;entryDy=0;" edge="1" parent="1" source="MIFL1ekXniG99IZFZCdi-22" target="MIFL1ekXniG99IZFZCdi-14">
          <mxGeometry relative="1" as="geometry">
            <mxPoint x="200" y="400" as="sourcePoint" />
            <mxPoint x="180" y="450" as="targetPoint" />
          </mxGeometry>
        </mxCell>
        <mxCell id="MIFL1ekXniG99IZFZCdi-24" value="codigo" style="ellipse;whiteSpace=wrap;html=1;align=center;fontStyle=4;" vertex="1" parent="1">
          <mxGeometry x="600" y="550" width="60" height="30" as="geometry" />
        </mxCell>
        <mxCell id="MIFL1ekXniG99IZFZCdi-25" value="" style="endArrow=none;html=1;rounded=0;exitX=0.5;exitY=1;exitDx=0;exitDy=0;entryX=1;entryY=0.25;entryDx=0;entryDy=0;" edge="1" parent="1" source="MIFL1ekXniG99IZFZCdi-24" target="MIFL1ekXniG99IZFZCdi-15">
          <mxGeometry relative="1" as="geometry">
            <mxPoint x="280" y="400" as="sourcePoint" />
            <mxPoint x="260" y="450" as="targetPoint" />
          </mxGeometry>
        </mxCell>
        <mxCell id="MIFL1ekXniG99IZFZCdi-26" value="nombre" style="ellipse;whiteSpace=wrap;html=1;align=center;" vertex="1" parent="1">
          <mxGeometry x="650" y="570" width="60" height="30" as="geometry" />
        </mxCell>
        <mxCell id="MIFL1ekXniG99IZFZCdi-27" value="" style="endArrow=none;html=1;rounded=0;exitX=0;exitY=1;exitDx=0;exitDy=0;entryX=1;entryY=0.25;entryDx=0;entryDy=0;" edge="1" parent="1" source="MIFL1ekXniG99IZFZCdi-26" target="MIFL1ekXniG99IZFZCdi-15">
          <mxGeometry relative="1" as="geometry">
            <mxPoint x="280" y="400" as="sourcePoint" />
            <mxPoint x="260" y="450" as="targetPoint" />
          </mxGeometry>
        </mxCell>
        <mxCell id="MIFL1ekXniG99IZFZCdi-28" value="nacionalidad" style="ellipse;whiteSpace=wrap;html=1;align=center;" vertex="1" parent="1">
          <mxGeometry x="680" y="600" width="80" height="30" as="geometry" />
        </mxCell>
        <mxCell id="MIFL1ekXniG99IZFZCdi-29" value="" style="endArrow=none;html=1;rounded=0;exitX=0;exitY=0.5;exitDx=0;exitDy=0;entryX=1;entryY=0.25;entryDx=0;entryDy=0;" edge="1" parent="1" source="MIFL1ekXniG99IZFZCdi-28" target="MIFL1ekXniG99IZFZCdi-15">
          <mxGeometry relative="1" as="geometry">
            <mxPoint x="280" y="400" as="sourcePoint" />
            <mxPoint x="260" y="450" as="targetPoint" />
          </mxGeometry>
        </mxCell>
        <mxCell id="MIFL1ekXniG99IZFZCdi-30" value="fechaNacimiento" style="ellipse;whiteSpace=wrap;html=1;align=center;" vertex="1" parent="1">
          <mxGeometry x="670" y="640" width="100" height="30" as="geometry" />
        </mxCell>
        <mxCell id="MIFL1ekXniG99IZFZCdi-31" value="" style="endArrow=none;html=1;rounded=0;exitX=0;exitY=0.5;exitDx=0;exitDy=0;entryX=1;entryY=0.25;entryDx=0;entryDy=0;" edge="1" parent="1" source="MIFL1ekXniG99IZFZCdi-30" target="MIFL1ekXniG99IZFZCdi-15">
          <mxGeometry relative="1" as="geometry">
            <mxPoint x="280" y="400" as="sourcePoint" />
            <mxPoint x="260" y="450" as="targetPoint" />
          </mxGeometry>
        </mxCell>
        <mxCell id="MIFL1ekXniG99IZFZCdi-32" value="Edicion" style="whiteSpace=wrap;html=1;align=center;fillColor=#d5e8d4;strokeColor=#82b366;" vertex="1" parent="1">
          <mxGeometry x="160" y="770" width="100" height="40" as="geometry" />
        </mxCell>
        <mxCell id="MIFL1ekXniG99IZFZCdi-33" value="codigoISBN" style="ellipse;whiteSpace=wrap;html=1;align=center;fontStyle=4;" vertex="1" parent="1">
          <mxGeometry x="70" y="750" width="70" height="30" as="geometry" />
        </mxCell>
        <mxCell id="MIFL1ekXniG99IZFZCdi-34" value="" style="endArrow=none;html=1;rounded=0;exitX=1;exitY=0.5;exitDx=0;exitDy=0;entryX=0;entryY=0.25;entryDx=0;entryDy=0;" edge="1" parent="1" source="MIFL1ekXniG99IZFZCdi-33" target="MIFL1ekXniG99IZFZCdi-32">
          <mxGeometry relative="1" as="geometry">
            <mxPoint x="200" y="450" as="sourcePoint" />
            <mxPoint x="180" y="500" as="targetPoint" />
          </mxGeometry>
        </mxCell>
        <mxCell id="MIFL1ekXniG99IZFZCdi-35" value="" style="endArrow=none;html=1;rounded=0;entryX=0;entryY=0.5;entryDx=0;entryDy=0;exitX=1;exitY=0.5;exitDx=0;exitDy=0;" edge="1" parent="1" source="MIFL1ekXniG99IZFZCdi-14" target="MIFL1ekXniG99IZFZCdi-15">
          <mxGeometry relative="1" as="geometry">
            <mxPoint x="270" y="660" as="sourcePoint" />
            <mxPoint x="430" y="660" as="targetPoint" />
          </mxGeometry>
        </mxCell>
        <mxCell id="MIFL1ekXniG99IZFZCdi-36" value="1,n" style="resizable=0;html=1;whiteSpace=wrap;align=left;verticalAlign=bottom;" connectable="0" vertex="1" parent="MIFL1ekXniG99IZFZCdi-35">
          <mxGeometry x="-1" relative="1" as="geometry" />
        </mxCell>
        <mxCell id="MIFL1ekXniG99IZFZCdi-37" value="1,n" style="resizable=0;html=1;whiteSpace=wrap;align=right;verticalAlign=bottom;" connectable="0" vertex="1" parent="MIFL1ekXniG99IZFZCdi-35">
          <mxGeometry x="1" relative="1" as="geometry" />
        </mxCell>
        <mxCell id="MIFL1ekXniG99IZFZCdi-38" value="" style="endArrow=none;html=1;rounded=0;entryX=0.5;entryY=0;entryDx=0;entryDy=0;exitX=0.5;exitY=1;exitDx=0;exitDy=0;" edge="1" parent="1" source="MIFL1ekXniG99IZFZCdi-14" target="MIFL1ekXniG99IZFZCdi-32">
          <mxGeometry relative="1" as="geometry">
            <mxPoint x="270" y="660" as="sourcePoint" />
            <mxPoint x="430" y="660" as="targetPoint" />
          </mxGeometry>
        </mxCell>
        <mxCell id="MIFL1ekXniG99IZFZCdi-39" value="1,1" style="resizable=0;html=1;whiteSpace=wrap;align=left;verticalAlign=bottom;" connectable="0" vertex="1" parent="MIFL1ekXniG99IZFZCdi-38">
          <mxGeometry x="-1" relative="1" as="geometry">
            <mxPoint y="20" as="offset" />
          </mxGeometry>
        </mxCell>
        <mxCell id="MIFL1ekXniG99IZFZCdi-40" value="1,n" style="resizable=0;html=1;whiteSpace=wrap;align=right;verticalAlign=bottom;" connectable="0" vertex="1" parent="MIFL1ekXniG99IZFZCdi-38">
          <mxGeometry x="1" relative="1" as="geometry">
            <mxPoint x="24" y="-2" as="offset" />
          </mxGeometry>
        </mxCell>
        <mxCell id="MIFL1ekXniG99IZFZCdi-41" value="Ejemplar" style="whiteSpace=wrap;html=1;align=center;fillColor=#d5e8d4;strokeColor=#82b366;" vertex="1" parent="1">
          <mxGeometry x="460" y="770" width="100" height="40" as="geometry" />
        </mxCell>
        <mxCell id="MIFL1ekXniG99IZFZCdi-42" value="" style="endArrow=none;html=1;rounded=0;entryX=0;entryY=0.5;entryDx=0;entryDy=0;exitX=1;exitY=0.5;exitDx=0;exitDy=0;" edge="1" parent="1" source="MIFL1ekXniG99IZFZCdi-32" target="MIFL1ekXniG99IZFZCdi-41">
          <mxGeometry relative="1" as="geometry">
            <mxPoint x="270" y="710" as="sourcePoint" />
            <mxPoint x="430" y="710" as="targetPoint" />
          </mxGeometry>
        </mxCell>
        <mxCell id="MIFL1ekXniG99IZFZCdi-43" value="1,1" style="resizable=0;html=1;whiteSpace=wrap;align=left;verticalAlign=bottom;" connectable="0" vertex="1" parent="MIFL1ekXniG99IZFZCdi-42">
          <mxGeometry x="-1" relative="1" as="geometry">
            <mxPoint x="1" y="1" as="offset" />
          </mxGeometry>
        </mxCell>
        <mxCell id="MIFL1ekXniG99IZFZCdi-44" value="1,n" style="resizable=0;html=1;whiteSpace=wrap;align=right;verticalAlign=bottom;" connectable="0" vertex="1" parent="MIFL1ekXniG99IZFZCdi-42">
          <mxGeometry x="1" relative="1" as="geometry">
            <mxPoint x="-1" y="1" as="offset" />
          </mxGeometry>
        </mxCell>
        <mxCell id="MIFL1ekXniG99IZFZCdi-45" value="Escribe" style="shape=rhombus;perimeter=rhombusPerimeter;whiteSpace=wrap;html=1;align=center;" vertex="1" parent="1">
          <mxGeometry x="335" y="610" width="110" height="40" as="geometry" />
        </mxCell>
        <mxCell id="MIFL1ekXniG99IZFZCdi-46" value="Tiene" style="shape=rhombus;perimeter=rhombusPerimeter;whiteSpace=wrap;html=1;align=center;" vertex="1" parent="1">
          <mxGeometry x="155" y="690" width="110" height="40" as="geometry" />
        </mxCell>
        <mxCell id="MIFL1ekXniG99IZFZCdi-47" value="Tiene" style="shape=rhombus;perimeter=rhombusPerimeter;whiteSpace=wrap;html=1;align=center;" vertex="1" parent="1">
          <mxGeometry x="310" y="770" width="110" height="40" as="geometry" />
        </mxCell>
        <mxCell id="MIFL1ekXniG99IZFZCdi-48" value="numeroEjemplar" style="ellipse;whiteSpace=wrap;html=1;align=center;fontStyle=4;" vertex="1" parent="1">
          <mxGeometry x="400" y="710" width="110" height="30" as="geometry" />
        </mxCell>
        <mxCell id="MIFL1ekXniG99IZFZCdi-49" value="estaDisponible" style="ellipse;whiteSpace=wrap;html=1;align=center;" vertex="1" parent="1">
          <mxGeometry x="520" y="710" width="90" height="30" as="geometry" />
        </mxCell>
        <mxCell id="MIFL1ekXniG99IZFZCdi-50" value="" style="endArrow=none;html=1;rounded=0;exitX=0.5;exitY=1;exitDx=0;exitDy=0;entryX=0.5;entryY=0;entryDx=0;entryDy=0;" edge="1" parent="1" source="MIFL1ekXniG99IZFZCdi-48" target="MIFL1ekXniG99IZFZCdi-41">
          <mxGeometry relative="1" as="geometry">
            <mxPoint x="200" y="400" as="sourcePoint" />
            <mxPoint x="180" y="450" as="targetPoint" />
          </mxGeometry>
        </mxCell>
        <mxCell id="MIFL1ekXniG99IZFZCdi-51" value="" style="endArrow=none;html=1;rounded=0;exitX=0;exitY=1;exitDx=0;exitDy=0;entryX=0.5;entryY=0;entryDx=0;entryDy=0;" edge="1" parent="1" source="MIFL1ekXniG99IZFZCdi-49" target="MIFL1ekXniG99IZFZCdi-41">
          <mxGeometry relative="1" as="geometry">
            <mxPoint x="200" y="400" as="sourcePoint" />
            <mxPoint x="180" y="450" as="targetPoint" />
          </mxGeometry>
        </mxCell>
        <mxCell id="MIFL1ekXniG99IZFZCdi-52" value="" style="endArrow=none;html=1;rounded=0;entryX=0;entryY=0.5;entryDx=0;entryDy=0;exitX=1;exitY=0.5;exitDx=0;exitDy=0;" edge="1" parent="1" source="MIFL1ekXniG99IZFZCdi-56" target="MIFL1ekXniG99IZFZCdi-1">
          <mxGeometry relative="1" as="geometry">
            <mxPoint x="520" y="789.66" as="sourcePoint" />
            <mxPoint x="720" y="789.66" as="targetPoint" />
          </mxGeometry>
        </mxCell>
        <mxCell id="MIFL1ekXniG99IZFZCdi-53" value="1,n" style="resizable=0;html=1;whiteSpace=wrap;align=right;verticalAlign=bottom;" connectable="0" vertex="1" parent="MIFL1ekXniG99IZFZCdi-52">
          <mxGeometry x="1" relative="1" as="geometry">
            <mxPoint x="-1" y="1" as="offset" />
          </mxGeometry>
        </mxCell>
        <mxCell id="MIFL1ekXniG99IZFZCdi-54" value="" style="endArrow=none;html=1;rounded=0;entryX=0;entryY=0.5;entryDx=0;entryDy=0;exitX=1;exitY=0.5;exitDx=0;exitDy=0;" edge="1" parent="1" source="MIFL1ekXniG99IZFZCdi-41" target="MIFL1ekXniG99IZFZCdi-56">
          <mxGeometry relative="1" as="geometry">
            <mxPoint x="560" y="790" as="sourcePoint" />
            <mxPoint x="740" y="790" as="targetPoint" />
          </mxGeometry>
        </mxCell>
        <mxCell id="MIFL1ekXniG99IZFZCdi-55" value="1,n" style="resizable=0;html=1;whiteSpace=wrap;align=left;verticalAlign=bottom;" connectable="0" vertex="1" parent="MIFL1ekXniG99IZFZCdi-54">
          <mxGeometry x="-1" relative="1" as="geometry">
            <mxPoint x="1" y="1" as="offset" />
          </mxGeometry>
        </mxCell>
        <mxCell id="MIFL1ekXniG99IZFZCdi-56" value="Presta" style="shape=rhombus;perimeter=rhombusPerimeter;whiteSpace=wrap;html=1;align=center;" vertex="1" parent="1">
          <mxGeometry x="590" y="770" width="110" height="40" as="geometry" />
        </mxCell>
        <mxCell id="MIFL1ekXniG99IZFZCdi-57" value="fechaPrestamo" style="ellipse;whiteSpace=wrap;html=1;align=center;" vertex="1" parent="1">
          <mxGeometry x="530" y="840" width="90" height="30" as="geometry" />
        </mxCell>
        <mxCell id="MIFL1ekXniG99IZFZCdi-58" value="" style="endArrow=none;html=1;rounded=0;exitX=0;exitY=1;exitDx=0;exitDy=0;entryX=0.5;entryY=0;entryDx=0;entryDy=0;" edge="1" parent="1" source="MIFL1ekXniG99IZFZCdi-56" target="MIFL1ekXniG99IZFZCdi-57">
          <mxGeometry relative="1" as="geometry">
            <mxPoint x="200" y="400" as="sourcePoint" />
            <mxPoint x="180" y="450" as="targetPoint" />
          </mxGeometry>
        </mxCell>
        <mxCell id="MIFL1ekXniG99IZFZCdi-59" value="fechaDevolucion" style="ellipse;whiteSpace=wrap;html=1;align=center;" vertex="1" parent="1">
          <mxGeometry x="650" y="840" width="95" height="30" as="geometry" />
        </mxCell>
        <mxCell id="MIFL1ekXniG99IZFZCdi-60" value="" style="endArrow=none;html=1;rounded=0;exitX=1;exitY=1;exitDx=0;exitDy=0;entryX=0.5;entryY=0;entryDx=0;entryDy=0;" edge="1" parent="1" source="MIFL1ekXniG99IZFZCdi-56" target="MIFL1ekXniG99IZFZCdi-59">
          <mxGeometry relative="1" as="geometry">
            <mxPoint x="200" y="400" as="sourcePoint" />
            <mxPoint x="180" y="450" as="targetPoint" />
          </mxGeometry>
        </mxCell>
      </root>
    </mxGraphModel>
  </diagram>
</mxfile>
